<svg width="1280" height="832" viewBox="0 0 1280 832" fill="none" xmlns="http://www.w3.org/2000/svg">
<rect y="302" width="1280" height="448" fill="#126ED1"/>
<path d="M1 629.25H1281V830H1V629.25Z" fill="#0F5097"/>
<path d="M129 612.75C86.3333 594.417 43.6667 594.417 1 612.75V629.25H1281V612.75C1238.33 631.083 1195.67 631.083 1153 612.75C1110.33 594.417 1067.67 594.417 1025 612.75C982.333 631.083 939.667 631.083 897 612.75C854.333 594.417 811.667 594.417 769 612.75C726.333 631.083 683.667 631.083 641 612.75C598.333 594.417 555.667 594.417 513 612.75C470.333 631.083 427.667 631.083 385 612.75C342.333 594.417 299.667 594.417 257 612.75C214.333 631.083 171.667 631.083 129 612.75Z" fill="#0F5097"/>
<path d="M1 629.25H1281M1 629.25V830H1281V629.25M1 629.25V612.75M1281 629.25V612.75M1 612.75C43.6667 594.417 86.3333 594.417 129 612.75C171.667 631.083 214.333 631.083 257 612.75C299.667 594.417 342.333 594.417 385 612.75C427.667 631.083 470.333 631.083 513 612.75C555.667 594.417 598.333 594.417 641 612.75C683.667 631.083 726.333 631.083 769 612.75C811.667 594.417 854.333 594.417 897 612.75C939.667 631.083 982.333 631.083 1025 612.75C1067.67 594.417 1110.33 594.417 1153 612.75C1195.67 631.083 1238.33 631.083 1281 612.75M1 612.75V609.312M1281 612.75V609.312" stroke="#0F5097" stroke-width="5"/>
<path d="M0 307.345H1280V84H0V307.345Z" fill="#60ADFF"/>
<path d="M128 325.702C85.3333 346.099 42.6667 346.099 0 325.702V307.345H1280V325.702C1237.33 305.306 1194.67 305.306 1152 325.702C1109.33 346.099 1066.67 346.099 1024 325.702C981.333 305.306 938.667 305.306 896 325.702C853.333 346.099 810.667 346.099 768 325.702C725.333 305.306 682.667 305.306 640 325.702C597.333 346.099 554.667 346.099 512 325.702C469.333 305.306 426.667 305.306 384 325.702C341.333 346.099 298.667 346.099 256 325.702C213.333 305.306 170.667 305.306 128 325.702Z" fill="#60ADFF"/>
<path d="M0 307.345H1280M0 307.345V84H1280V307.345M0 307.345V325.702M1280 307.345V325.702M0 325.702C42.6667 346.099 85.3333 346.099 128 325.702C170.667 305.306 213.333 305.306 256 325.702C298.667 346.099 341.333 346.099 384 325.702C426.667 305.306 469.333 305.306 512 325.702C554.667 346.099 597.333 346.099 640 325.702C682.667 305.306 725.333 305.306 768 325.702C810.667 346.099 853.333 346.099 896 325.702C938.667 305.306 981.333 305.306 1024 325.702C1066.67 346.099 1109.33 346.099 1152 325.702C1194.67 305.306 1237.33 305.306 1280 325.702M0 325.702V329.527M1280 325.702V329.527" stroke="#60ADFF" stroke-width="5"/>
<path d="M-2 3H1278V87.1667H-2V3Z" fill="#E1F3FD"/>
<path d="M-2 94.6667V87.1667H19.8807C26.6269 86.0556 33.3731 86.0556 40.1193 87.1667H147.881C154.627 86.0556 161.373 86.0556 168.119 87.1667H275.881C282.627 86.0556 289.373 86.0556 296.119 87.1667H403.881C410.627 86.0556 417.373 86.0556 424.119 87.1667H531.881C538.627 86.0556 545.373 86.0556 552.119 87.1667H659.881C666.627 86.0556 673.373 86.0556 680.119 87.1667H787.881C794.627 86.0556 801.373 86.0556 808.119 87.1667H915.881C922.627 86.0556 929.373 86.0556 936.119 87.1667H1043.88C1050.63 86.0556 1057.37 86.0556 1064.12 87.1667H1171.88C1178.63 86.0556 1185.37 86.0556 1192.12 87.1667H1278V94.6667C1256.67 105.778 1235.33 105.778 1214 94.6667C1206.71 90.8679 1199.41 88.3679 1192.12 87.1667H1171.88C1164.59 88.3679 1157.29 90.8679 1150 94.6667C1128.67 105.778 1107.33 105.778 1086 94.6667C1078.71 90.8679 1071.41 88.3679 1064.12 87.1667H1043.88C1036.59 88.3679 1029.29 90.8679 1022 94.6667C1000.67 105.778 979.333 105.778 958 94.6667C950.706 90.8679 943.413 88.3679 936.119 87.1667H915.881C908.587 88.3679 901.294 90.8679 894 94.6667C872.667 105.778 851.333 105.778 830 94.6667C822.706 90.8679 815.413 88.3679 808.119 87.1667H787.881C780.587 88.3679 773.294 90.8679 766 94.6667C744.667 105.778 723.333 105.778 702 94.6667C694.706 90.8679 687.413 88.3679 680.119 87.1667H659.881C652.587 88.3679 645.294 90.8679 638 94.6667C616.667 105.778 595.333 105.778 574 94.6667C566.706 90.8679 559.413 88.3679 552.119 87.1667H531.881C524.587 88.3679 517.294 90.8679 510 94.6667C488.667 105.778 467.333 105.778 446 94.6667C438.706 90.8679 431.413 88.3679 424.119 87.1667H403.881C396.587 88.3679 389.294 90.8679 382 94.6667C360.667 105.778 339.333 105.778 318 94.6667C310.706 90.8679 303.413 88.3679 296.119 87.1667H275.881C268.587 88.3679 261.294 90.8679 254 94.6667C232.667 105.778 211.333 105.778 190 94.6667C182.706 90.8679 175.413 88.3679 168.119 87.1667H147.881C140.587 88.3679 133.294 90.8679 126 94.6667C104.667 105.778 83.3333 105.778 62 94.6667C54.7064 90.8679 47.4129 88.3679 40.1193 87.1667H19.8807C12.5871 88.3679 5.29357 90.8679 -2 94.6667Z" fill="#E1F3FD"/>
<path d="M1278 87.1667V3H-2V87.1667M1278 87.1667H-2M1278 87.1667H1192.12M1278 87.1667V94.6667C1256.67 105.778 1235.33 105.778 1214 94.6667C1206.71 90.8679 1199.41 88.3679 1192.12 87.1667M-2 87.1667V94.6667C5.29357 90.8679 12.5871 88.3679 19.8807 87.1667M-2 87.1667H19.8807M19.8807 87.1667H40.1193M19.8807 87.1667C26.6269 86.0556 33.3731 86.0556 40.1193 87.1667M40.1193 87.1667H147.881M40.1193 87.1667C47.4129 88.3679 54.7064 90.8679 62 94.6667C83.3333 105.778 104.667 105.778 126 94.6667C133.294 90.8679 140.587 88.3679 147.881 87.1667M147.881 87.1667H168.119M147.881 87.1667C154.627 86.0556 161.373 86.0556 168.119 87.1667M168.119 87.1667H275.881M168.119 87.1667C175.413 88.3679 182.706 90.8679 190 94.6667C211.333 105.778 232.667 105.778 254 94.6667C261.294 90.8679 268.587 88.3679 275.881 87.1667M275.881 87.1667H296.119M275.881 87.1667C282.627 86.0556 289.373 86.0556 296.119 87.1667M296.119 87.1667H403.881M296.119 87.1667C303.413 88.3679 310.706 90.8679 318 94.6667C339.333 105.778 360.667 105.778 382 94.6667C389.294 90.8679 396.587 88.3679 403.881 87.1667M403.881 87.1667H424.119M403.881 87.1667C410.627 86.0556 417.373 86.0556 424.119 87.1667M424.119 87.1667H531.881M424.119 87.1667C431.413 88.3679 438.706 90.8679 446 94.6667C467.333 105.778 488.667 105.778 510 94.6667C517.294 90.8679 524.587 88.3679 531.881 87.1667M531.881 87.1667H552.119M531.881 87.1667C538.627 86.0556 545.373 86.0556 552.119 87.1667M552.119 87.1667H659.881M552.119 87.1667C559.413 88.3679 566.706 90.8679 574 94.6667C595.333 105.778 616.667 105.778 638 94.6667C645.294 90.8679 652.587 88.3679 659.881 87.1667M659.881 87.1667H680.119M659.881 87.1667C666.627 86.0556 673.373 86.0556 680.119 87.1667M680.119 87.1667H787.881M680.119 87.1667C687.413 88.3679 694.706 90.8679 702 94.6667C723.333 105.778 744.667 105.778 766 94.6667C773.294 90.8679 780.587 88.3679 787.881 87.1667M787.881 87.1667H808.119M787.881 87.1667C794.627 86.0556 801.373 86.0556 808.119 87.1667M808.119 87.1667H915.881M808.119 87.1667C815.413 88.3679 822.706 90.8679 830 94.6667C851.333 105.778 872.667 105.778 894 94.6667C901.294 90.8679 908.587 88.3679 915.881 87.1667M915.881 87.1667H936.119M915.881 87.1667C922.627 86.0556 929.373 86.0556 936.119 87.1667M936.119 87.1667H1043.88M936.119 87.1667C943.413 88.3679 950.706 90.8679 958 94.6667C979.333 105.778 1000.67 105.778 1022 94.6667C1029.29 90.8679 1036.59 88.3679 1043.88 87.1667M1043.88 87.1667H1064.12M1043.88 87.1667C1050.63 86.0556 1057.37 86.0556 1064.12 87.1667M1064.12 87.1667H1171.88M1064.12 87.1667C1071.41 88.3679 1078.71 90.8679 1086 94.6667C1107.33 105.778 1128.67 105.778 1150 94.6667C1157.29 90.8679 1164.59 88.3679 1171.88 87.1667M1171.88 87.1667H1192.12M1171.88 87.1667C1178.63 86.0556 1185.37 86.0556 1192.12 87.1667" stroke="#E1F3FD" stroke-width="5"/>
</svg>
