<svg width="1280" height="565" viewBox="0 0 1280 565" fill="none" xmlns="http://www.w3.org/2000/svg">
<rect y="190" width="1280" height="275" fill="#126ED1"/>
<path d="M0 223.345H1280V-9.53674e-07H0V223.345Z" fill="#60ADFF"/>
<path d="M128 241.702C85.3333 262.099 42.6667 262.099 0 241.702V223.345H1280V241.702C1237.33 221.306 1194.67 221.306 1152 241.702C1109.33 262.099 1066.67 262.099 1024 241.702C981.333 221.306 938.667 221.306 896 241.702C853.333 262.099 810.667 262.099 768 241.702C725.333 221.306 682.667 221.306 640 241.702C597.333 262.099 554.667 262.099 512 241.702C469.333 221.306 426.667 221.306 384 241.702C341.333 262.099 298.667 262.099 256 241.702C213.333 221.306 170.667 221.306 128 241.702Z" fill="#60ADFF"/>
<path d="M0 223.345H1280M0 223.345V-9.53674e-07H1280V223.345M0 223.345V241.702M1280 223.345V241.702M0 241.702C42.6667 262.099 85.3333 262.099 128 241.702C170.667 221.306 213.333 221.306 256 241.702C298.667 262.099 341.333 262.099 384 241.702C426.667 221.306 469.333 221.306 512 241.702C554.667 262.099 597.333 262.099 640 241.702C682.667 221.306 725.333 221.306 768 241.702C810.667 262.099 853.333 262.099 896 241.702C938.667 221.306 981.333 221.306 1024 241.702C1066.67 262.099 1109.33 262.099 1152 241.702C1194.67 221.306 1237.33 221.306 1280 241.702M0 241.702V245.527M1280 241.702V245.527" stroke="#60ADFF" stroke-width="5"/>
<path d="M0 418.464H1280V562H0V418.464Z" fill="#0F5097"/>
<path d="M128 400.211C85.3333 379.93 42.6667 379.93 0 400.211V418.464H1280V400.211C1237.33 420.492 1194.67 420.492 1152 400.211C1109.33 379.93 1066.67 379.93 1024 400.211C981.333 420.492 938.667 420.492 896 400.211C853.333 379.93 810.667 379.93 768 400.211C725.333 420.492 682.667 420.492 640 400.211C597.333 379.93 554.667 379.93 512 400.211C469.333 420.492 426.667 420.492 384 400.211C341.333 379.93 298.667 379.93 256 400.211C213.333 420.492 170.667 420.492 128 400.211Z" fill="#0F5097"/>
<path d="M0 418.464H1280M0 418.464V562H1280V418.464M0 418.464V400.211M1280 418.464V400.211M0 400.211C42.6667 379.93 85.3333 379.93 128 400.211C170.667 420.492 213.333 420.492 256 400.211C298.667 379.93 341.333 379.93 384 400.211C426.667 420.492 469.333 420.492 512 400.211C554.667 379.93 597.333 379.93 640 400.211C682.667 420.492 725.333 420.492 768 400.211C810.667 379.93 853.333 379.93 896 400.211C938.667 420.492 981.333 420.492 1024 400.211C1066.67 379.93 1109.33 379.93 1152 400.211C1194.67 420.492 1237.33 420.492 1280 400.211M0 400.211V396.408M1280 400.211V396.408" stroke="#0F5097" stroke-width="5"/>
<path d="M0 0H1280V84.1667H0V0Z" fill="#E1F3FD"/>
<path d="M0 91.6667V84.1667H21.8807C28.6269 83.0556 35.3731 83.0556 42.1193 84.1667H149.881C156.627 83.0556 163.373 83.0556 170.119 84.1667H277.881C284.627 83.0556 291.373 83.0556 298.119 84.1667H405.881C412.627 83.0556 419.373 83.0556 426.119 84.1667H533.881C540.627 83.0556 547.373 83.0556 554.119 84.1667H661.881C668.627 83.0556 675.373 83.0556 682.119 84.1667H789.881C796.627 83.0556 803.373 83.0556 810.119 84.1667H917.881C924.627 83.0556 931.373 83.0556 938.119 84.1667H1045.88C1052.63 83.0556 1059.37 83.0556 1066.12 84.1667H1173.88C1180.63 83.0556 1187.37 83.0556 1194.12 84.1667H1280V91.6667C1258.67 102.778 1237.33 102.778 1216 91.6667C1208.71 87.8679 1201.41 85.3679 1194.12 84.1667H1173.88C1166.59 85.3679 1159.29 87.8679 1152 91.6667C1130.67 102.778 1109.33 102.778 1088 91.6667C1080.71 87.8679 1073.41 85.3679 1066.12 84.1667H1045.88C1038.59 85.3679 1031.29 87.8679 1024 91.6667C1002.67 102.778 981.333 102.778 960 91.6667C952.706 87.8679 945.413 85.3679 938.119 84.1667H917.881C910.587 85.3679 903.294 87.8679 896 91.6667C874.667 102.778 853.333 102.778 832 91.6667C824.706 87.8679 817.413 85.3679 810.119 84.1667H789.881C782.587 85.3679 775.294 87.8679 768 91.6667C746.667 102.778 725.333 102.778 704 91.6667C696.706 87.8679 689.413 85.3679 682.119 84.1667H661.881C654.587 85.3679 647.294 87.8679 640 91.6667C618.667 102.778 597.333 102.778 576 91.6667C568.706 87.8679 561.413 85.3679 554.119 84.1667H533.881C526.587 85.3679 519.294 87.8679 512 91.6667C490.667 102.778 469.333 102.778 448 91.6667C440.706 87.8679 433.413 85.3679 426.119 84.1667H405.881C398.587 85.3679 391.294 87.8679 384 91.6667C362.667 102.778 341.333 102.778 320 91.6667C312.706 87.8679 305.413 85.3679 298.119 84.1667H277.881C270.587 85.3679 263.294 87.8679 256 91.6667C234.667 102.778 213.333 102.778 192 91.6667C184.706 87.8679 177.413 85.3679 170.119 84.1667H149.881C142.587 85.3679 135.294 87.8679 128 91.6667C106.667 102.778 85.3333 102.778 64 91.6667C56.7064 87.8679 49.4129 85.3679 42.1193 84.1667H21.8807C14.5871 85.3679 7.29357 87.8679 0 91.6667Z" fill="#E1F3FD"/>
<path d="M1280 84.1667V0H0V84.1667M1280 84.1667H0M1280 84.1667H1194.12M1280 84.1667V91.6667C1258.67 102.778 1237.33 102.778 1216 91.6667C1208.71 87.8679 1201.41 85.3679 1194.12 84.1667M0 84.1667V91.6667C7.29357 87.8679 14.5871 85.3679 21.8807 84.1667M0 84.1667H21.8807M21.8807 84.1667H42.1193M21.8807 84.1667C28.6269 83.0556 35.3731 83.0556 42.1193 84.1667M42.1193 84.1667H149.881M42.1193 84.1667C49.4129 85.3679 56.7064 87.8679 64 91.6667C85.3333 102.778 106.667 102.778 128 91.6667C135.294 87.8679 142.587 85.3679 149.881 84.1667M149.881 84.1667H170.119M149.881 84.1667C156.627 83.0556 163.373 83.0556 170.119 84.1667M170.119 84.1667H277.881M170.119 84.1667C177.413 85.3679 184.706 87.8679 192 91.6667C213.333 102.778 234.667 102.778 256 91.6667C263.294 87.8679 270.587 85.3679 277.881 84.1667M277.881 84.1667H298.119M277.881 84.1667C284.627 83.0556 291.373 83.0556 298.119 84.1667M298.119 84.1667H405.881M298.119 84.1667C305.413 85.3679 312.706 87.8679 320 91.6667C341.333 102.778 362.667 102.778 384 91.6667C391.294 87.8679 398.587 85.3679 405.881 84.1667M405.881 84.1667H426.119M405.881 84.1667C412.627 83.0556 419.373 83.0556 426.119 84.1667M426.119 84.1667H533.881M426.119 84.1667C433.413 85.3679 440.706 87.8679 448 91.6667C469.333 102.778 490.667 102.778 512 91.6667C519.294 87.8679 526.587 85.3679 533.881 84.1667M533.881 84.1667H554.119M533.881 84.1667C540.627 83.0556 547.373 83.0556 554.119 84.1667M554.119 84.1667H661.881M554.119 84.1667C561.413 85.3679 568.706 87.8679 576 91.6667C597.333 102.778 618.667 102.778 640 91.6667C647.294 87.8679 654.587 85.3679 661.881 84.1667M661.881 84.1667H682.119M661.881 84.1667C668.627 83.0556 675.373 83.0556 682.119 84.1667M682.119 84.1667H789.881M682.119 84.1667C689.413 85.3679 696.706 87.8679 704 91.6667C725.333 102.778 746.667 102.778 768 91.6667C775.294 87.8679 782.587 85.3679 789.881 84.1667M789.881 84.1667H810.119M789.881 84.1667C796.627 83.0556 803.373 83.0556 810.119 84.1667M810.119 84.1667H917.881M810.119 84.1667C817.413 85.3679 824.706 87.8679 832 91.6667C853.333 102.778 874.667 102.778 896 91.6667C903.294 87.8679 910.587 85.3679 917.881 84.1667M917.881 84.1667H938.119M917.881 84.1667C924.627 83.0556 931.373 83.0556 938.119 84.1667M938.119 84.1667H1045.88M938.119 84.1667C945.413 85.3679 952.706 87.8679 960 91.6667C981.333 102.778 1002.67 102.778 1024 91.6667C1031.29 87.8679 1038.59 85.3679 1045.88 84.1667M1045.88 84.1667H1066.12M1045.88 84.1667C1052.63 83.0556 1059.37 83.0556 1066.12 84.1667M1066.12 84.1667H1173.88M1066.12 84.1667C1073.41 85.3679 1080.71 87.8679 1088 91.6667C1109.33 102.778 1130.67 102.778 1152 91.6667C1159.29 87.8679 1166.59 85.3679 1173.88 84.1667M1173.88 84.1667H1194.12M1173.88 84.1667C1180.63 83.0556 1187.37 83.0556 1194.12 84.1667" stroke="#E1F3FD" stroke-width="5"/>
</svg>
