<?xml version="1.0" encoding="utf-8"?>
<!-- Generator: Adobe Illustrator 27.4.0, SVG Export Plug-In . SVG Version: 6.00 Build 0)  -->
<svg version="1.1" id="レイヤー_1" xmlns="http://www.w3.org/2000/svg" xmlns:xlink="http://www.w3.org/1999/xlink" x="0px"
	 y="0px" viewBox="0 0 35 44" style="enable-background:new 0 0 35 44;" xml:space="preserve">
<style type="text/css">
	.st0{fill:#BBECFF;}
	.st1{fill:none;stroke:#FFFFFF;stroke-width:3;}
</style>
<path class="st0" d="M10.5,22C10,15.9,7.6,8.9,6.4,6.2c-2.7-4.4-3.2-9,15.7,7.2C25,10.6,31.2,5.5,36,5.5v33c-4.8,0-11-5.1-13.9-7.9
	C3.1,46.9,3.7,42.2,6.4,37.8C7.6,35.1,10,28.1,10.5,22z"/>
<path class="st1" d="M22.2,13.4C3.2-2.9,3.7,1.8,6.4,6.2C7.6,8.9,10,15.9,10.5,22C10,28.1,7.6,35.1,6.4,37.8
	c-2.7,4.4-3.2,9,15.7-7.2 M22.2,13.4c0.3,0.2,0.6,0.5,0.9,0.7 M22.2,13.4L22.2,13.4 M22.2,13.4C25,10.6,31.2,5.5,36,5.5v33
	c-4.8,0-11-5.1-13.9-7.9 M22.1,30.6c0.3-0.2,0.6-0.5,0.9-0.7 M22.1,30.6L22.1,30.6"/>
<path class="st0" d="M34.8,7h2.4c0.2,0,0.3,0.1,0.3,0.3v29.4c0,0.2-0.1,0.3-0.3,0.3h-2.4c-0.2,0-0.3-0.1-0.3-0.3V7.3
	C34.5,7.1,34.6,7,34.8,7z"/>
</svg>
