<svg width="33" height="33" viewBox="0 0 33 33" fill="none" xmlns="http://www.w3.org/2000/svg">
<rect width="33" height="33" rx="7" fill="#F7773A"/>
<path d="M7.17674 16.5271C6.99814 14.2287 6.02325 11.5941 5.55814 10.5642C4.51311 8.90815 4.30277 7.17845 11.6463 13.2705C12.746 12.24 15.1606 10.3125 17 10.3125H17.75C22.1218 10.3125 27.5672 15.0892 28.191 16.3144C27.5672 17.5785 22.1218 22.6875 17.75 22.6875H17C15.1606 22.6875 12.7226 20.76 11.6228 19.7296C4.27935 25.8216 4.48969 24.0919 5.53471 22.4358C5.99983 21.4059 6.97471 18.7713 7.15332 16.4729L7.17674 16.5271Z" fill="white"/>
<path d="M11.6463 13.2705C4.30277 7.17845 4.51311 8.90815 5.55814 10.5642C6.02325 11.5941 6.99814 14.2287 7.17674 16.5271L7.15332 16.4729C6.97471 18.7713 5.99983 21.4059 5.53471 22.4358C4.48969 24.0919 4.27935 25.8216 11.6228 19.7296M11.6463 13.2705C11.7548 13.3605 11.8649 13.4522 11.9767 13.5456M11.6463 13.2705L11.6419 13.2746M11.6463 13.2705C12.746 12.24 15.1606 10.3125 17 10.3125H17.75C22.1218 10.3125 27.5672 15.0892 28.191 16.3144M11.6228 19.7296C11.7313 19.6395 11.8415 19.5478 11.9533 19.4544M11.6228 19.7296L11.6184 19.7254M11.6228 19.7296C12.7226 20.76 15.1606 22.6875 17 22.6875H17.75C22.1218 22.6875 27.5672 17.5785 28.191 16.3144M28.25 16.5C28.25 16.4533 28.2299 16.3907 28.191 16.3144M28.191 16.3144C28.2299 16.2356 28.25 16.1717 28.25 16.125" stroke="white" stroke-width="2"/>
</svg>
