<svg width="30" height="39" viewBox="0 0 30 39" fill="none" xmlns="http://www.w3.org/2000/svg">
<circle cx="24.7998" cy="5" r="4" fill="#F7773A" stroke="white" stroke-width="2"/>
<path d="M25.7998 5C25.7998 5.55228 25.3521 6 24.7998 6C24.2475 6 23.7998 5.55228 23.7998 5C23.7998 4.44772 24.2475 4 24.7998 4C25.3521 4 25.7998 4.44772 25.7998 5Z" fill="white"/>
<path d="M22.5002 25.2V8.69995H27V25.2C26.3333 29.2 22.8 37.2 14 37.2C3 37.2 1.00032 26.7811 1.00016 25.2C1 23.7 1.00006 21.7 1 20.2C1.5 15.7 6.35646 13.4862 8.50016 12.2C11 10.7 9.83349 12.7 9.50016 13.7C9.16682 15.0333 8.60016 18.2 9.00016 20.2C9.40016 22.2 8.16682 21.7 7.50016 21.2L6.00016 20.2C5.50016 20.7 5.50016 24.2 5.50016 25.2C5.50016 26.2 7.00016 33.7 14.0002 32.7C19.6002 31.9 22.0002 27.3666 22.5002 25.2Z" fill="#F7773A" stroke="white" stroke-width="2"/>
<path d="M23.5 7.69995H26V9.69995H23.5V7.69995Z" fill="#F7773A"/>
</svg>
