<svg width="98" height="44" viewBox="0 0 98 44" fill="none" xmlns="http://www.w3.org/2000/svg">
<path d="M19.1695 13.3879C0.19883 -2.85747 0.742202 1.75507 3.44185 6.17107C4.6434 8.91764 7.0386 15.8708 7.5 22C7.0386 28.1292 4.58289 35.0824 3.38134 37.8289C0.681691 42.2449 0.138317 46.8575 19.109 30.6121M19.1695 13.3879C19.4498 13.6279 19.7344 13.8725 20.0232 14.1217M19.1695 13.3879L19.1581 13.3989M19.1695 13.3879C22.0105 10.64 28.2482 5.49999 33 5.5H74C86.3846 5.5 96.5 19.375 96.5 21.5C96.5 23.625 86.3846 38.5 74 38.5H33C28.2482 38.5 21.95 33.36 19.109 30.6121M19.109 30.6121C19.3893 30.3721 19.6739 30.1275 19.9627 29.8783M19.109 30.6121L19.0976 30.6011" stroke="#0F5097" stroke-width="3"/>
<circle cx="81" cy="19" r="4" fill="#0F5097"/>
<path d="M34.814 28H29.51V27.354C29.9633 27.1047 30.4223 26.9403 30.887 26.861V17.239C30.6603 17.205 30.4223 17.1427 30.173 17.052C29.9237 16.9613 29.7027 16.8593 29.51 16.746V16.1H34.814V16.746C34.61 16.8707 34.3833 16.9783 34.134 17.069C33.896 17.1483 33.6637 17.205 33.437 17.239V26.861C33.6637 26.9063 33.896 26.9687 34.134 27.048C34.3833 27.1273 34.61 27.2293 34.814 27.354V28ZM37.3142 26.589C37.4389 26.7137 37.6145 26.8327 37.8412 26.946C38.0679 27.048 38.3682 27.099 38.7422 27.099C39.3655 27.099 39.8812 26.9403 40.2892 26.623C40.7085 26.2943 40.9182 25.841 40.9182 25.263C40.9182 24.8437 40.7822 24.4923 40.5102 24.209C40.2495 23.9257 39.9152 23.665 39.5072 23.427C39.0992 23.189 38.6629 22.9567 38.1982 22.73C37.7335 22.492 37.2972 22.2143 36.8892 21.897C36.4812 21.5797 36.1412 21.2057 35.8692 20.775C35.6085 20.333 35.4782 19.789 35.4782 19.143C35.4782 18.5877 35.5802 18.106 35.7842 17.698C35.9882 17.29 36.2659 16.9557 36.6172 16.695C36.9799 16.423 37.4049 16.2247 37.8922 16.1C38.3795 15.964 38.9065 15.896 39.4732 15.896C40.1645 15.896 40.8049 15.947 41.3942 16.049C41.9949 16.1397 42.5332 16.287 43.0092 16.491C42.9979 16.7177 42.9752 16.9783 42.9412 17.273C42.9185 17.5677 42.8845 17.8623 42.8392 18.157C42.7939 18.4403 42.7429 18.7123 42.6862 18.973C42.6409 19.2223 42.5955 19.432 42.5502 19.602H41.8532L41.0712 17.273C40.9352 17.205 40.7312 17.1427 40.4592 17.086C40.1985 17.0293 39.9265 17.001 39.6432 17.001C39.1672 17.001 38.7649 17.1257 38.4362 17.375C38.1075 17.6243 37.9432 17.987 37.9432 18.463C37.9432 18.8937 38.0792 19.262 38.3512 19.568C38.6232 19.8627 38.9632 20.1347 39.3712 20.384C39.7792 20.6333 40.2212 20.8827 40.6972 21.132C41.1845 21.37 41.6322 21.6477 42.0402 21.965C42.4482 22.2823 42.7882 22.6563 43.0602 23.087C43.3322 23.5063 43.4682 24.0277 43.4682 24.651C43.4682 25.7843 43.0829 26.6627 42.3122 27.286C41.5529 27.898 40.4309 28.204 38.9462 28.204C38.5835 28.204 38.2152 28.1813 37.8412 28.136C37.4785 28.0907 37.1329 28.0283 36.8042 27.949C36.4755 27.8697 36.1809 27.7847 35.9202 27.694C35.6709 27.6033 35.4839 27.507 35.3592 27.405C35.3705 27.1443 35.3989 26.8667 35.4442 26.572C35.4895 26.266 35.5349 25.9657 35.5802 25.671C35.6369 25.365 35.6935 25.076 35.7502 24.804C35.8069 24.532 35.8635 24.294 35.9202 24.09H36.6172L37.3142 26.589ZM47.6437 28H43.4447V27.354C43.626 27.2407 43.8187 27.1443 44.0227 27.065C44.238 26.9743 44.4477 26.9063 44.6517 26.861L49.0377 15.896H50.2957L54.5627 26.861C54.7894 26.9063 55.016 26.9743 55.2427 27.065C55.4694 27.1443 55.6677 27.2407 55.8377 27.354V28H50.5167V27.354C50.732 27.252 50.9644 27.1557 51.2137 27.065C51.463 26.9743 51.701 26.9063 51.9277 26.861L50.9417 24.158H47.1677L46.1647 26.861C46.686 26.929 47.179 27.0933 47.6437 27.354V28ZM47.5757 23.053H50.5847L49.4797 19.806L49.1567 18.344H49.1227L48.7487 19.84L47.5757 23.053ZM59.4335 26.861C59.6941 26.9177 59.9265 26.9913 60.1305 27.082C60.3345 27.1727 60.5328 27.2633 60.7255 27.354V28H55.4895V27.354C55.7388 27.218 55.9768 27.116 56.2035 27.048C56.4301 26.9687 56.6568 26.9063 56.8835 26.861V17.239C56.3168 17.1143 55.8521 16.95 55.4895 16.746V16.1H57.2915C57.5181 16.1 57.7731 16.0943 58.0565 16.083C58.3511 16.0717 58.6571 16.0603 58.9745 16.049C59.2918 16.0263 59.6148 16.0093 59.9435 15.998C60.2721 15.9753 60.5895 15.964 60.8955 15.964C61.5188 15.964 62.0911 16.0377 62.6125 16.185C63.1451 16.321 63.5985 16.5307 63.9725 16.814C64.3578 17.0973 64.6525 17.4543 64.8565 17.885C65.0718 18.3043 65.1795 18.7973 65.1795 19.364C65.1795 20.18 64.9811 20.8487 64.5845 21.37C64.1878 21.8913 63.6438 22.2823 62.9525 22.543C63.4058 23.257 63.8875 23.988 64.3975 24.736C64.9075 25.4727 65.4458 26.1867 66.0125 26.878L66.8285 27.422V28H63.9895L63.2585 27.439C62.7371 26.8157 62.2725 26.096 61.8645 25.28C61.4678 24.4527 61.1165 23.6423 60.8105 22.849H59.4335V26.861ZM60.2835 17.069C59.9321 17.069 59.6488 17.103 59.4335 17.171V21.914H60.4365C61.0145 21.914 61.5075 21.71 61.9155 21.302C62.3235 20.8827 62.5275 20.265 62.5275 19.449C62.5275 19.0297 62.4708 18.6727 62.3575 18.378C62.2441 18.072 62.0855 17.8227 61.8815 17.63C61.6775 17.4373 61.4395 17.2957 61.1675 17.205C60.8955 17.1143 60.6008 17.069 60.2835 17.069ZM72.137 28H66.833V27.354C67.2863 27.1047 67.7453 26.9403 68.21 26.861V17.239C67.9833 17.205 67.7453 17.1427 67.496 17.052C67.2466 16.9613 67.0256 16.8593 66.833 16.746V16.1H72.137V16.746C71.933 16.8707 71.7063 16.9783 71.457 17.069C71.219 17.1483 70.9866 17.205 70.76 17.239V26.861C70.9866 26.9063 71.219 26.9687 71.457 27.048C71.7063 27.1273 71.933 27.2293 72.137 27.354V28Z" fill="#0F5097"/>
</svg>
