<?xml version="1.0" encoding="utf-8"?>
<!-- Generator: Adobe Illustrator 27.4.0, SVG Export Plug-In . SVG Version: 6.00 Build 0)  -->
<svg version="1.1" id="レイヤー_1" xmlns="http://www.w3.org/2000/svg" xmlns:xlink="http://www.w3.org/1999/xlink" x="0px"
	 y="0px" viewBox="0 0 33 44" style="enable-background:new 0 0 33 44;" xml:space="preserve">
<style type="text/css">
	.st0{fill:none;stroke:#FFFFFF;stroke-width:3;}
</style>
<path class="st0" d="M19.2,13.4C0.2-2.9,0.7,1.8,3.4,6.2C4.6,8.9,7,15.9,7.5,22C7,28.1,4.6,35.1,3.4,37.8c-2.7,4.4-3.2,9,15.7-7.2
	 M19.2,13.4c0.3,0.2,0.6,0.5,0.9,0.7 M19.2,13.4L19.2,13.4 M19.2,13.4c2.8-2.8,9-7.9,13.8-7.9 M19.1,30.6c0.3-0.2,0.6-0.5,0.9-0.7
	 M19.1,30.6L19.1,30.6 M19.1,30.6c2.8,2.7,9.1,7.9,13.9,7.9"/>
</svg>
