<svg width="1280" height="832" viewBox="0 0 1280 832" fill="none" xmlns="http://www.w3.org/2000/svg">
<path d="M496.854 284.961C411.938 212.263 414.37 232.904 426.454 252.666C431.832 264.956 442.554 296.072 444.619 323.5C442.554 350.928 431.562 382.044 426.183 394.334C414.099 414.096 411.667 434.737 496.583 362.039M496.854 284.961C498.109 286.035 499.382 287.129 500.675 288.244M496.854 284.961L496.803 285.01M496.854 284.961C509.571 272.664 537.492 249.662 558.762 249.662H742.286C797.722 249.662 843 311.753 843 321.262C843 330.772 797.722 397.337 742.286 397.337H558.762C537.492 397.338 509.3 374.336 496.583 362.039M496.583 362.039C497.838 360.965 499.112 359.871 500.405 358.756M496.583 362.039L496.532 361.99" stroke="white" stroke-width="11"/>
<ellipse cx="773.5" cy="310" rx="17.5" ry="18" fill="white"/>
<path d="M560.36 350H535.4V346.96C537.533 345.787 539.693 345.013 541.88 344.64V299.36C540.813 299.2 539.693 298.907 538.52 298.48C537.347 298.053 536.307 297.573 535.4 297.04V294H560.36V297.04C559.4 297.627 558.333 298.133 557.16 298.56C556.04 298.933 554.947 299.2 553.88 299.36V344.64C554.947 344.853 556.04 345.147 557.16 345.52C558.333 345.893 559.4 346.373 560.36 346.96V350ZM573.726 343.36C574.312 343.947 575.139 344.507 576.206 345.04C577.272 345.52 578.686 345.76 580.446 345.76C583.379 345.76 585.806 345.013 587.726 343.52C589.699 341.973 590.686 339.84 590.686 337.12C590.686 335.147 590.046 333.493 588.766 332.16C587.539 330.827 585.966 329.6 584.046 328.48C582.126 327.36 580.072 326.267 577.886 325.2C575.699 324.08 573.646 322.773 571.726 321.28C569.806 319.787 568.206 318.027 566.926 316C565.699 313.92 565.086 311.36 565.086 308.32C565.086 305.707 565.566 303.44 566.526 301.52C567.486 299.6 568.792 298.027 570.446 296.8C572.152 295.52 574.152 294.587 576.446 294C578.739 293.36 581.219 293.04 583.886 293.04C587.139 293.04 590.152 293.28 592.926 293.76C595.752 294.187 598.286 294.88 600.526 295.84C600.472 296.907 600.366 298.133 600.206 299.52C600.099 300.907 599.939 302.293 599.726 303.68C599.512 305.013 599.272 306.293 599.006 307.52C598.792 308.693 598.579 309.68 598.366 310.48H595.086L591.406 299.52C590.766 299.2 589.806 298.907 588.526 298.64C587.299 298.373 586.019 298.24 584.686 298.24C582.446 298.24 580.552 298.827 579.006 300C577.459 301.173 576.686 302.88 576.686 305.12C576.686 307.147 577.326 308.88 578.606 310.32C579.886 311.707 581.486 312.987 583.406 314.16C585.326 315.333 587.406 316.507 589.646 317.68C591.939 318.8 594.046 320.107 595.966 321.6C597.886 323.093 599.486 324.853 600.766 326.88C602.046 328.853 602.686 331.307 602.686 334.24C602.686 339.573 600.872 343.707 597.246 346.64C593.672 349.52 588.392 350.96 581.406 350.96C579.699 350.96 577.966 350.853 576.206 350.64C574.499 350.427 572.872 350.133 571.326 349.76C569.779 349.387 568.392 348.987 567.166 348.56C565.992 348.133 565.112 347.68 564.526 347.2C564.579 345.973 564.712 344.667 564.926 343.28C565.139 341.84 565.352 340.427 565.566 339.04C565.832 337.6 566.099 336.24 566.366 334.96C566.632 333.68 566.899 332.56 567.166 331.6H570.446L573.726 343.36ZM623.935 350H604.175V346.96C605.028 346.427 605.935 345.973 606.895 345.6C607.908 345.173 608.895 344.853 609.855 344.64L630.495 293.04H636.415L656.495 344.64C657.562 344.853 658.628 345.173 659.695 345.6C660.762 345.973 661.695 346.427 662.495 346.96V350H637.455V346.96C638.468 346.48 639.562 346.027 640.735 345.6C641.908 345.173 643.028 344.853 644.095 344.64L639.455 331.92H621.695L616.975 344.64C619.428 344.96 621.748 345.733 623.935 346.96V350ZM623.615 326.72H637.775L632.575 311.44L631.055 304.56H630.895L629.135 311.6L623.615 326.72ZM681.016 344.64C682.243 344.907 683.336 345.253 684.296 345.68C685.256 346.107 686.19 346.533 687.096 346.96V350H662.456V346.96C663.63 346.32 664.75 345.84 665.816 345.52C666.883 345.147 667.95 344.853 669.016 344.64V299.36C666.35 298.773 664.163 298 662.456 297.04V294H670.936C672.003 294 673.203 293.973 674.536 293.92C675.923 293.867 677.363 293.813 678.856 293.76C680.35 293.653 681.87 293.573 683.416 293.52C684.963 293.413 686.456 293.36 687.896 293.36C690.83 293.36 693.523 293.707 695.976 294.4C698.483 295.04 700.616 296.027 702.376 297.36C704.19 298.693 705.576 300.373 706.536 302.4C707.55 304.373 708.056 306.693 708.056 309.36C708.056 313.2 707.123 316.347 705.256 318.8C703.39 321.253 700.83 323.093 697.576 324.32C699.71 327.68 701.976 331.12 704.376 334.64C706.776 338.107 709.31 341.467 711.976 344.72L715.816 347.28V350H702.456L699.016 347.36C696.563 344.427 694.376 341.04 692.456 337.2C690.59 333.307 688.936 329.493 687.496 325.76H681.016V344.64ZM685.016 298.56C683.363 298.56 682.03 298.72 681.016 299.04V321.36H685.736C688.456 321.36 690.776 320.4 692.696 318.48C694.616 316.507 695.576 313.6 695.576 309.76C695.576 307.787 695.31 306.107 694.776 304.72C694.243 303.28 693.496 302.107 692.536 301.2C691.576 300.293 690.456 299.627 689.176 299.2C687.896 298.773 686.51 298.56 685.016 298.56ZM742.398 350H717.438V346.96C719.571 345.787 721.731 345.013 723.918 344.64V299.36C722.851 299.2 721.731 298.907 720.558 298.48C719.384 298.053 718.344 297.573 717.438 297.04V294H742.398V297.04C741.438 297.627 740.371 298.133 739.198 298.56C738.078 298.933 736.984 299.2 735.918 299.36V344.64C736.984 344.853 738.078 345.147 739.198 345.52C740.371 345.893 741.438 346.373 742.398 346.96V350Z" fill="white"/>
</svg>
