<svg width="1280" height="832" viewBox="0 0 1280 832" fill="none" xmlns="http://www.w3.org/2000/svg">
<ellipse cx="1121" cy="709.5" rx="24" ry="23.5" fill="white" fill-opacity="0.8"/>
<circle cx="1070" cy="445" r="16" fill="white" fill-opacity="0.8"/>
<circle cx="137.5" cy="691.5" r="22.5" fill="white" fill-opacity="0.8"/>
<ellipse cx="72.5" cy="560" rx="12.5" ry="13" fill="white" fill-opacity="0.8"/>
<circle cx="327.5" cy="193.5" r="12.5" fill="white" fill-opacity="0.8"/>
<circle cx="106.5" cy="223.5" r="11.5" fill="white" fill-opacity="0.8"/>
<circle cx="257.5" cy="505.5" r="23.5" fill="white" fill-opacity="0.8"/>
<ellipse cx="134" cy="428.5" rx="16" ry="15.5" fill="white" fill-opacity="0.8"/>
<circle cx="560.5" cy="750.5" r="17.5" fill="white" fill-opacity="0.8"/>
<circle cx="327.5" cy="768.5" r="17.5" fill="white" fill-opacity="0.8"/>
<circle cx="421.5" cy="582.5" r="15.5" fill="white" fill-opacity="0.8"/>
<ellipse cx="287" cy="652.5" rx="16" ry="16.5" fill="white" fill-opacity="0.8"/>
<circle cx="804" cy="675" r="17" fill="white" fill-opacity="0.8"/>
<circle cx="1179.5" cy="556.5" r="16.5" fill="white" fill-opacity="0.8"/>
<ellipse cx="240.5" cy="324" rx="17.5" ry="18" fill="white" fill-opacity="0.8"/>
<circle cx="954.5" cy="553.5" r="13.5" fill="white" fill-opacity="0.8"/>
<circle cx="927.5" cy="775.5" r="18.5" fill="white" fill-opacity="0.8"/>
<circle cx="800.5" cy="198.5" r="13.5" fill="white" fill-opacity="0.8"/>
<ellipse cx="1011" cy="286.5" rx="14" ry="14.5" fill="white" fill-opacity="0.8"/>
<circle cx="1175.5" cy="346.5" r="12.5" fill="white" fill-opacity="0.8"/>
<ellipse cx="1109.5" cy="169" rx="11.5" ry="12" fill="white" fill-opacity="0.8"/>
<ellipse cx="572.5" cy="143" rx="11.5" ry="12" fill="white" fill-opacity="0.8"/>
</svg>
